<svg width="1298.120850" height="270.633057" viewBox="0 0 1298.12 270.633" fill="none" xmlns="http://www.w3.org/2000/svg" xmlns:xlink="http://www.w3.org/1999/xlink">
	<desc>
			Created with Pixso.
	</desc>
	<defs>
		<linearGradient x1="1247.197510" y1="212.129639" x2="-32.625458" y2="68.103516" id="paint_linear_1_17_0" gradientUnits="userSpaceOnUse">
			<stop stop-color="#012169"/>
			<stop offset="1.000000" stop-color="#01184D"/>
		</linearGradient>
	</defs>
	<g style="mix-blend-mode:normal">
		<path id="Path 9537" d="M104.25 4.17L176.39 4.17L176.39 266.46L125.1 266.46L130.1 98.41L125.1 98.41L107.16 266.46L69.22 266.46L51.29 98.41L46.7 98.41L51.29 266.46L0 266.46L0 4.17L72.14 4.17L85.9 168.05L90.48 168.05L104.25 4.17ZM278.97 52.12L242.27 52.12L242.27 111.33L278.97 111.33L278.97 159.29L242.27 159.29L242.27 218.5L278.97 218.5L278.97 266.46L190.98 266.46L190.98 4.17L278.97 4.17L278.97 52.12ZM394.48 4.17L466.62 4.17L466.62 266.46L415.33 266.46L420.33 98.41L415.33 98.41L397.4 266.46L359.45 266.46L341.52 98.41L336.93 98.41L341.52 266.46L290.23 266.46L290.23 4.17L362.37 4.17L376.13 168.05L380.72 168.05L394.48 4.17ZM532.5 52.12L532.5 111.33L538.76 111.33C539.59 111.33 540.64 111.13 541.89 110.71C543.14 110.29 544.25 109.67 545.22 108.83C546.2 108 547.03 106.89 547.72 105.5C548.42 104.11 548.77 102.58 548.77 100.91L548.77 62.55C548.77 59.49 547.65 56.99 545.43 55.04C543.21 53.09 540.98 52.12 538.76 52.12L532.5 52.12ZM532.5 159.29L532.5 218.5L540.01 218.5C542.23 218.5 544.46 217.53 546.68 215.58C548.91 213.64 550.02 211.14 550.02 208.08L550.02 169.71C550.02 166.66 548.91 164.15 546.68 162.21C544.46 160.26 542.23 159.29 540.01 159.29L532.5 159.29ZM572.54 132.18C583.66 134.41 591.58 139.62 596.31 147.82C601.03 156.02 603.39 169.44 603.39 188.06C603.39 200.57 603.39 207.38 603.39 208.5C602.84 230.74 597.7 245.96 587.96 254.16C578.24 262.36 563.64 266.46 544.18 266.46L481.21 266.46L481.21 4.17L542.93 4.17C562.39 4.17 576.64 8.2 585.67 16.26C594.71 24.32 599.22 38.91 599.22 60.04C599.22 72.55 599.22 79.36 599.22 80.48C598.95 94.93 596.79 105.77 592.76 113C588.73 120.23 581.99 124.96 572.54 127.18L572.54 132.18ZM701.81 52.12L665.11 52.12L665.11 111.33L701.81 111.33L701.81 159.29L665.11 159.29L665.11 218.5L701.81 218.5L701.81 266.46L613.82 266.46L613.82 4.17L701.81 4.17L701.81 52.12ZM771.86 52.12L764.36 52.12L764.36 129.27L771.86 129.27C773.25 129.27 774.71 128.85 776.24 128.01C777.77 127.18 779.09 125.93 780.2 124.26C781.31 122.59 781.87 120.79 781.87 118.84L781.87 62.55C781.87 59.49 780.76 56.99 778.53 55.04C776.31 53.09 774.09 52.12 771.86 52.12ZM823.15 149.7L841.5 266.46L788.13 266.46L777.7 177.22L764.36 177.22L764.36 266.46L713.07 266.46L713.07 4.17L776.03 4.17C794.94 4.17 809.18 8.75 818.78 17.93C828.37 27.1 833.16 43.22 833.16 66.3C833.16 82.42 833.16 90.9 833.16 91.74C833.16 102.02 832.19 110.64 830.24 117.59C828.3 124.54 825.38 130.1 821.49 134.27C817.59 138.44 812.45 141.5 806.06 143.44L806.06 149.7L823.15 149.7ZM940.33 132.6C949.5 139.55 956.25 147.82 960.55 157.41C964.86 167 967.02 179.44 967.02 194.73C967.02 201.41 967.02 205.3 967.02 206.41C966.74 227.26 961.81 243.18 952.21 254.16C942.62 265.14 927.4 270.63 906.55 270.63C866.24 270.63 846.09 250.33 846.09 209.75L846.09 173.05L897.38 173.05L897.38 209.33C897.38 212.67 898.28 215.17 900.09 216.84C901.9 218.5 903.91 219.34 906.14 219.34C908.36 219.34 910.38 218.5 912.18 216.84C913.99 215.17 914.89 212.67 914.89 209.33L914.89 192.65C914.89 184.31 912.39 177.36 907.39 171.8L871.53 137.61C865.69 132.88 860.96 127.74 857.35 122.18C853.73 116.62 850.95 110.01 849.01 102.37C847.06 94.72 846.09 85.9 846.09 75.89C846.09 69.22 846.09 65.33 846.09 64.21C846.64 43.36 851.65 27.45 861.1 16.47C870.55 5.49 885.56 0 906.14 0C946.17 0 966.18 20.29 966.18 60.88L966.18 97.57L914.89 97.57L914.89 61.29C914.89 59.07 914.41 57.19 913.43 55.66C912.46 54.14 911.35 53.02 910.1 52.33C908.85 51.63 907.53 51.29 906.14 51.29C903.91 51.29 901.9 52.12 900.09 53.79C898.28 55.46 897.38 57.96 897.38 61.29L897.38 77.97C897.38 86.31 899.74 93.13 904.47 98.41L940.33 132.6ZM1045.42 4.17L1096.71 4.17L1096.71 266.46L1045.42 266.46L1045.42 159.29L1029.16 159.29L1029.16 266.46L977.86 266.46L977.86 4.17L1029.16 4.17L1029.16 111.33L1045.42 111.33L1045.42 4.17ZM1162.18 266.46L1110.89 266.46L1110.89 4.17L1162.18 4.17L1162.18 266.46ZM1227.65 52.12L1227.65 129.27L1235.15 129.27C1236.54 129.27 1238 128.85 1239.53 128.01C1241.06 127.18 1242.38 125.93 1243.49 124.26C1244.61 122.59 1245.16 120.79 1245.16 118.84L1245.16 62.55C1245.16 59.49 1244.05 56.99 1241.82 55.04C1239.6 53.09 1237.38 52.12 1235.15 52.12L1227.65 52.12ZM1239.31 4.17C1278.52 4.17 1298.12 29.19 1298.12 79.23C1298.12 95.35 1298.12 103.83 1298.12 104.66C1297.56 153.03 1277.97 177.22 1239.31 177.22L1227.65 177.22L1227.65 266.46L1176.36 266.46L1176.36 4.17L1239.31 4.17Z" fill="url(#paint_linear_1_17_0)" fill-opacity="1.000000" fill-rule="nonzero"/>
		<path id="Path 9537" d="M176.39 4.17L176.39 266.46L125.1 266.46L130.1 98.41L125.1 98.41L107.16 266.46L69.22 266.46L51.29 98.41L46.7 98.41L51.29 266.46L0 266.46L0 4.17L72.14 4.17L85.9 168.05L90.48 168.05L104.25 4.17L176.39 4.17ZM242.27 52.12L242.27 111.33L278.97 111.33L278.97 159.29L242.27 159.29L242.27 218.5L278.97 218.5L278.97 266.46L190.98 266.46L190.98 4.17L278.97 4.17L278.97 52.12L242.27 52.12ZM466.62 4.17L466.62 266.46L415.33 266.46L420.33 98.41L415.33 98.41L397.4 266.46L359.45 266.46L341.52 98.41L336.93 98.41L341.52 266.46L290.23 266.46L290.23 4.17L362.37 4.17L376.13 168.05L380.72 168.05L394.48 4.17L466.62 4.17ZM532.5 111.33L538.76 111.33C539.59 111.33 540.64 111.13 541.89 110.71C543.14 110.29 544.25 109.67 545.22 108.83C546.2 108 547.03 106.89 547.72 105.5C548.42 104.11 548.77 102.58 548.77 100.91L548.77 62.55C548.77 59.49 547.65 56.99 545.43 55.04C543.21 53.09 540.98 52.12 538.76 52.12L532.5 52.12L532.5 111.33ZM532.5 218.5L540.01 218.5C542.23 218.5 544.46 217.53 546.68 215.58C548.91 213.64 550.02 211.14 550.02 208.08L550.02 169.71C550.02 166.66 548.91 164.15 546.68 162.21C544.46 160.26 542.23 159.29 540.01 159.29L532.5 159.29L532.5 218.5ZM596.31 147.82C601.03 156.02 603.39 169.44 603.39 188.06C603.39 200.57 603.39 207.38 603.39 208.5C602.84 230.74 597.7 245.96 587.96 254.16C578.24 262.36 563.64 266.46 544.18 266.46L481.21 266.46L481.21 4.17L542.93 4.17C562.39 4.17 576.64 8.2 585.67 16.26C594.71 24.32 599.22 38.91 599.22 60.04C599.22 72.55 599.22 79.36 599.22 80.48C598.95 94.93 596.79 105.77 592.76 113C588.73 120.23 581.99 124.96 572.54 127.18L572.54 132.18C583.66 134.41 591.58 139.62 596.31 147.82ZM665.11 52.12L665.11 111.33L701.81 111.33L701.81 159.29L665.11 159.29L665.11 218.5L701.81 218.5L701.81 266.46L613.82 266.46L613.82 4.17L701.81 4.17L701.81 52.12L665.11 52.12ZM764.36 52.12L764.36 129.27L771.86 129.27C773.25 129.27 774.71 128.85 776.24 128.01C777.77 127.18 779.09 125.93 780.2 124.26C781.31 122.59 781.87 120.79 781.87 118.84L781.87 62.55C781.87 59.49 780.76 56.99 778.53 55.04C776.31 53.09 774.09 52.12 771.86 52.12L764.36 52.12ZM841.5 266.46L788.13 266.46L777.7 177.22L764.36 177.22L764.36 266.46L713.07 266.46L713.07 4.17L776.03 4.17C794.94 4.17 809.18 8.75 818.78 17.93C828.37 27.1 833.16 43.22 833.16 66.3C833.16 82.42 833.16 90.9 833.16 91.74C833.16 102.02 832.19 110.64 830.24 117.59C828.3 124.54 825.38 130.1 821.49 134.27C817.59 138.44 812.45 141.5 806.06 143.44L806.06 149.7L823.15 149.7L841.5 266.46ZM960.55 157.41C964.86 167 967.02 179.44 967.02 194.73C967.02 201.41 967.02 205.3 967.02 206.41C966.74 227.26 961.81 243.18 952.21 254.16C942.62 265.14 927.4 270.63 906.55 270.63C866.24 270.63 846.09 250.33 846.09 209.75L846.09 173.05L897.38 173.05L897.38 209.33C897.38 212.67 898.28 215.17 900.09 216.84C901.9 218.5 903.91 219.34 906.14 219.34C908.36 219.34 910.38 218.5 912.18 216.84C913.99 215.17 914.89 212.67 914.89 209.33L914.89 192.65C914.89 184.31 912.39 177.36 907.39 171.8L871.53 137.61C865.69 132.88 860.96 127.74 857.35 122.18C853.73 116.62 850.95 110.01 849.01 102.37C847.06 94.72 846.09 85.9 846.09 75.89C846.09 69.22 846.09 65.33 846.09 64.21C846.64 43.36 851.65 27.45 861.1 16.47C870.55 5.49 885.56 0 906.14 0C946.17 0 966.18 20.29 966.18 60.88L966.18 97.57L914.89 97.57L914.89 61.29C914.89 59.07 914.41 57.19 913.43 55.66C912.46 54.14 911.35 53.02 910.1 52.33C908.85 51.63 907.53 51.29 906.14 51.29C903.91 51.29 901.9 52.12 900.09 53.79C898.28 55.46 897.38 57.96 897.38 61.29L897.38 77.97C897.38 86.31 899.74 93.13 904.47 98.41L940.33 132.6C949.5 139.55 956.25 147.82 960.55 157.41ZM1096.71 4.17L1096.71 266.46L1045.42 266.46L1045.42 159.29L1029.16 159.29L1029.16 266.46L977.86 266.46L977.86 4.17L1029.16 4.17L1029.16 111.33L1045.42 111.33L1045.42 4.17L1096.71 4.17ZM1110.89 266.46L1110.89 4.17L1162.18 4.17L1162.18 266.46L1110.89 266.46ZM1227.65 129.27L1235.15 129.27C1236.54 129.27 1238 128.85 1239.53 128.01C1241.06 127.18 1242.38 125.93 1243.49 124.26C1244.61 122.59 1245.16 120.79 1245.16 118.84L1245.16 62.55C1245.16 59.49 1244.05 56.99 1241.82 55.04C1239.6 53.09 1237.38 52.12 1235.15 52.12L1227.65 52.12L1227.65 129.27ZM1298.12 79.23C1298.12 95.35 1298.12 103.83 1298.12 104.66C1297.56 153.03 1277.97 177.22 1239.31 177.22L1227.65 177.22L1227.65 266.46L1176.36 266.46L1176.36 4.17L1239.31 4.17C1278.52 4.17 1298.12 29.19 1298.12 79.23Z" stroke="#FFFFFF" stroke-opacity="0" stroke-width="3.000000"/>
	</g>
</svg>
