<svg xmlns="http://www.w3.org/2000/svg" width="20.404" height="13.5" viewBox="0 0 20.404 13.5">
  <path id="adidas-logo-white-1" d="M17.368,8.4H16.173c-.885,0-1.763,0-2.655.007a.147.147,0,0,1-.144-.094c-.165-.295-.331-.583-.5-.871-.137-.223-.259-.46-.389-.683-.151-.273-.309-.532-.46-.8-.137-.237-.273-.468-.4-.705-.1-.173-.187-.331-.281-.5s-.223-.381-.331-.576c-.1-.173-.187-.331-.281-.5s-.2-.331-.295-.5c-.115-.2-.223-.4-.331-.6-.036-.072-.079-.137-.115-.209-.144-.252-.288-.5-.432-.748-.036-.065-.065-.115-.1-.187a.151.151,0,0,1,.058-.043c.079-.043.151-.1.237-.144.367-.209.727-.424,1.1-.633.259-.151.511-.295.777-.453.151-.094.317-.18.468-.273.1-.058.2-.115.295-.18.007.022.029.036.036.058.115.209.237.417.353.619.1.18.2.353.295.532.029.058.065.1.094.151.137.237.273.468.4.705.108.18.216.367.324.547s.209.367.309.547c.2.353.4.691.6,1.043.108.187.223.381.331.568.094.151.173.295.252.453.13.209.245.424.367.633.108.18.209.367.317.547s.216.367.324.561c.216.381.432.748.648,1.122A3.54,3.54,0,0,0,17.368,8.4ZM8.087,3.189c-.245.144-.5.281-.741.424s-.5.288-.748.424a8.427,8.427,0,0,0-.719.439c.007.007.007.029.022.036.065.115.13.223.2.345.1.173.2.345.288.5.108.2.223.389.331.583.079.144.165.295.252.439.115.2.223.389.345.583.065.108.13.216.187.324.094.165.18.317.273.475.108.187.216.381.324.568a.217.217,0,0,1,.036.137v.683c0,.036.007.065.007.1h.82c0-.036.007-.072.007-.1V8.477c0-.079,0-.079.094-.079h2.971a.27.27,0,0,0,.079-.007c-.036-.065-.065-.108-.094-.165-.094-.165-.18-.324-.281-.489-.137-.223-.259-.453-.4-.683-.151-.259-.309-.525-.46-.784-.137-.237-.273-.468-.417-.705s-.273-.468-.4-.691c-.144-.252-.288-.5-.432-.748-.18-.309-.36-.612-.54-.921A.77.77,0,0,0,9,3.053c-.065-.1-.115-.2-.18-.295C8.569,2.916,8.331,3.06,8.087,3.189ZM7.626,8.4H6.993a.115.115,0,0,1-.115-.065c-.007-.029-.029-.043-.043-.072-.079-.137-.151-.259-.237-.4a1.427,1.427,0,0,1-.079-.144c-.094-.151-.18-.309-.259-.453-.115-.209-.245-.4-.36-.612-.079-.144-.173-.295-.252-.439-.072-.115-.144-.245-.209-.36-.022-.029-.043-.065-.065-.094-.978.576-1.957,1.13-2.935,1.7.058.108.108.209.165.309.108.187.216.381.317.568a.13.13,0,0,0,.137.079h3.8c.079,0,.094.022.094.1V9.744c0,.007-.007.029-.007.036-.022-.007-.036-.007-.043-.022-.1-.043-.2-.1-.295-.144a1.63,1.63,0,0,0-.691-.144,1.885,1.885,0,0,0-.741.165,1.59,1.59,0,0,0-.475.309,2.05,2.05,0,0,0-.36.432.626.626,0,0,0-.072.137,2.8,2.8,0,0,0-.173.525,1.749,1.749,0,0,0,.029.748,1.909,1.909,0,0,0,.273.6,1.861,1.861,0,0,0,.849.676,1.9,1.9,0,0,0,.432.108,1.64,1.64,0,0,0,.835-.079c.115-.036.223-.108.345-.151a.483.483,0,0,1,.108-.043v.173h.8c.022-.079.022-4.533,0-4.633A.218.218,0,0,0,7.626,8.4ZM4.856,11.3a1.029,1.029,0,0,1,2.058,0,1.021,1.021,0,0,1-1.029,1.014A1.008,1.008,0,0,1,4.856,11.3ZM12.08,9.736c-.079-.043-.165-.079-.245-.13a1.641,1.641,0,0,0-.712-.165,1.723,1.723,0,0,0-.683.13,1.7,1.7,0,0,0-.561.331,1.8,1.8,0,0,0-.46.6c-.043.1-.072.209-.115.309a2.3,2.3,0,0,0-.065.389,1.344,1.344,0,0,0,.036.511,1.83,1.83,0,0,0,.6.978,2.184,2.184,0,0,0,.532.331,1.752,1.752,0,0,0,.424.108,1.661,1.661,0,0,0,.82-.065,2.585,2.585,0,0,0,.381-.173.375.375,0,0,1,.108-.043v.173h.8V8.4h-.8v1.36C12.108,9.751,12.087,9.751,12.08,9.736Zm-2.007,1.583a1.022,1.022,0,1,1,2.043-.029,1.031,1.031,0,0,1-1.007,1.036A1.016,1.016,0,0,1,10.072,11.319ZM2.827,9.751c-.094-.043-.173-.1-.259-.137a1.694,1.694,0,0,0-.863-.151,1.976,1.976,0,0,0-.612.165,1.633,1.633,0,0,0-.439.281,2.678,2.678,0,0,0-.309.331,1.872,1.872,0,0,0-.288.6A1.794,1.794,0,0,0,0,11.406a1.79,1.79,0,0,0,.691,1.36,1.874,1.874,0,0,0,.784.367,1.9,1.9,0,0,0,.9-.036,2.007,2.007,0,0,0,.381-.173.166.166,0,0,1,.137-.043v.151h.82V9.693c0-.1,0-.1-.1-.1H2.993c-.036,0-.065.007-.108.007v.151ZM.82,11.3A1.05,1.05,0,0,1,1.849,10.29a1.032,1.032,0,0,1,1.014,1.036,1.015,1.015,0,0,1-1.029,1.007A1.03,1.03,0,0,1,.82,11.3ZM16.065,9.751a2.76,2.76,0,0,0-.252-.13,1.641,1.641,0,0,0-.712-.165,1.86,1.86,0,0,0-1.878,1.7,1.861,1.861,0,0,0,.77,1.676,1.963,1.963,0,0,0,.683.309,1.8,1.8,0,0,0,.993-.058,2.59,2.59,0,0,0,.353-.165c.036-.022.065-.029.108-.058v.173h.8V9.657c0-.022-.007-.036-.007-.058H16.13v.165C16.08,9.758,16.073,9.758,16.065,9.751Zm-1.007,2.576A1.021,1.021,0,0,1,14.044,11.3a1.018,1.018,0,1,1,2.036,0A1,1,0,0,1,15.058,12.326Zm2.381.237a1.227,1.227,0,0,0,.324.317,1.819,1.819,0,0,0,.612.245,2.311,2.311,0,0,0,.942,0,1.362,1.362,0,0,0,.165-.036,2.665,2.665,0,0,0,.389-.173.987.987,0,0,0,.453-.525,1.111,1.111,0,0,0,.058-.648.717.717,0,0,0-.424-.561,2.422,2.422,0,0,0-.683-.2c-.094-.022-.173-.029-.259-.043-.129-.029-.259-.058-.389-.094a1.8,1.8,0,0,1-.295-.115.246.246,0,0,1-.137-.259.353.353,0,0,1,.216-.273.949.949,0,0,1,.583-.029.434.434,0,0,1,.353.439c0,.007.007.029.007.036h.863a1.174,1.174,0,0,0-.043-.324,1.075,1.075,0,0,0-.525-.612,1.156,1.156,0,0,0-.273-.115,3.043,3.043,0,0,0-.367-.094,1.74,1.74,0,0,0-.511-.007,1.794,1.794,0,0,0-.655.209,1.078,1.078,0,0,0-.4.367.867.867,0,0,0-.151.432c-.007.1,0,.209,0,.309a.228.228,0,0,0,.029.115.775.775,0,0,0,.353.432,2.034,2.034,0,0,0,.547.237c.2.043.4.094.6.144.137.036.281.065.417.1a.238.238,0,0,1,.173.137.308.308,0,0,1-.115.389.817.817,0,0,1-.748.072.477.477,0,0,1-.353-.417c0-.022-.007-.036-.007-.058a.055.055,0,0,0-.058-.043h-.655c-.065,0-.137.007-.2.007A.872.872,0,0,0,17.44,12.564ZM8.95,9.585H8.137c-.007,1.144,0,2.288,0,3.439.281.007.547,0,.82,0C8.979,12.866,8.964,9.65,8.95,9.585Z" transform="translate(0 0.3)" fill="#fff"/>
</svg>
