<svg xmlns="http://www.w3.org/2000/svg" width="23.589" height="23.589" viewBox="0 0 23.589 23.589">
  <g id="calendar" transform="translate(-19.2 -19.2)">
    <g id="Group_212" data-name="Group 212" transform="translate(19.2 19.2)">
      <path id="Path_9535" data-name="Path 9535" d="M25.1,19.2a1.474,1.474,0,0,0-1.474,1.474v1.474H22.149A2.949,2.949,0,0,0,19.2,25.1V39.84a2.949,2.949,0,0,0,2.949,2.949H39.84a2.949,2.949,0,0,0,2.949-2.949V25.1a2.949,2.949,0,0,0-2.949-2.949H38.366V20.674a1.474,1.474,0,1,0-2.949,0v1.474H26.572V20.674A1.474,1.474,0,0,0,25.1,19.2Zm0,7.372a1.474,1.474,0,1,0,0,2.949H36.892a1.474,1.474,0,0,0,0-2.949Z" transform="translate(-19.2 -19.2)" fill="#b9cfed" fill-rule="evenodd"/>
    </g>
  </g>
</svg>
