<svg xmlns="http://www.w3.org/2000/svg" width="28.1" height="20.606" viewBox="0 0 28.1 20.606">
  <g id="people" transform="translate(-6.08 -30.4)">
    <path id="Path_9540" data-name="Path 9540" d="M101.241,40.7a4.5,4.5,0,0,1-3.278-1.513,5.848,5.848,0,0,1-1.522-3.571,4.888,4.888,0,0,1,1.238-3.733,4.992,4.992,0,0,1,7.116.007,4.878,4.878,0,0,1,1.245,3.725,5.865,5.865,0,0,1-1.522,3.571A4.484,4.484,0,0,1,101.241,40.7ZM105.1,35.552Z" transform="translate(-76.428)" fill="#b9cfed"/>
    <path id="Path_9541" data-name="Path 9541" d="M83.959,117.87H68.525a1.622,1.622,0,0,1-1.288-.625,1.769,1.769,0,0,1-.308-1.51,7.715,7.715,0,0,1,3.531-4.746,11.637,11.637,0,0,1,11.56-.024,7.672,7.672,0,0,1,3.535,4.774,1.772,1.772,0,0,1-.311,1.509A1.62,1.62,0,0,1,83.959,117.87Z" transform="translate(-51.428 -66.864)" fill="#b9cfed"/>
    <path id="Path_9542" data-name="Path 9542" d="M33.617,51.224a4.4,4.4,0,0,1-4.039-4.269,4.127,4.127,0,0,1,1.054-3.139,4.164,4.164,0,0,1,5.967.007,4.1,4.1,0,0,1,1.054,3.133A4.4,4.4,0,0,1,33.617,51.224Z" transform="translate(-19.868 -10.287)" fill="#b9cfed"/>
    <path id="Path_9543" data-name="Path 9543" d="M17.593,106.6a8.885,8.885,0,0,0-3.843-.755,9.055,9.055,0,0,0-4.717,1.266,6.351,6.351,0,0,0-2.9,3.905,1.6,1.6,0,0,0,.28,1.368,1.482,1.482,0,0,0,1.176.571h6.5a.468.468,0,0,0,.461-.385c.006-.037.015-.074.024-.11a8.479,8.479,0,0,1,3.378-4.907.468.468,0,0,0-.037-.784c-.092-.054-.2-.111-.317-.169Z" transform="translate(0 -63.826)" fill="#b9cfed"/>
  </g>
</svg>
