<svg xmlns="http://www.w3.org/2000/svg" width="26.836" height="23.13" viewBox="0 0 26.836 23.13">
  <g id="tickets_fill" transform="translate(-3.097 -15.915)">
    <path id="Path_9539" data-name="Path 9539" d="M3.294,5.906,11.222.355a1.959,1.959,0,0,1,2.729.481L15.2,2.621q.028.04.053.08ZM.61,12.345.067,10.321a1.959,1.959,0,0,1,1.386-2.4L21.326,2.6a1.959,1.959,0,0,1,2.4,1.386l.564,2.105a1.567,1.567,0,0,1-.549,1.641,2.45,2.45,0,0,0,1.192,4.362,1.507,1.507,0,0,1,1.262,1.1l.574,2.144a1.959,1.959,0,0,1-1.386,2.4L5.51,23.062a1.959,1.959,0,0,1-2.4-1.386L2.57,19.66A1.707,1.707,0,0,1,3.138,17.9,2.45,2.45,0,0,0,1.977,13.58,1.7,1.7,0,0,1,.61,12.345ZM17.989,9.069a1.47,1.47,0,1,0-1.8-1.039A1.47,1.47,0,0,0,17.989,9.069ZM19,12.854a1.47,1.47,0,1,0-1.8-1.039A1.47,1.47,0,0,0,19,12.854Zm1.014,3.785a1.47,1.47,0,1,0-1.8-1.039A1.47,1.47,0,0,0,20.018,16.639Z" transform="translate(3.097 15.915)" fill="#b9cfed" fill-rule="evenodd"/>
  </g>
</svg>
